<svg xmlns="http://www.w3.org/2000/svg" width="96" height="96" viewBox="0 0 96 96" fill="none">
  <defs>
    <radialGradient id="core-plant-hydro" cx="0" cy="0" r="1" gradientUnits="userSpaceOnUse" gradientTransform="translate(38 32) rotate(50) scale(62)">
      <stop offset="0" stop-color="#1b2a3a"/>
      <stop offset="1" stop-color="#101821"/>
    </radialGradient>
  </defs>
  <circle cx="48" cy="48" r="44" fill="#0b1118"/>
  <circle cx="48" cy="48" r="39" fill="url(#core-plant-hydro)" stroke="#8ea4ba" stroke-width="1.5"/>
  <circle cx="48" cy="48" r="31" stroke="#7ed3ff" stroke-opacity="0.45" stroke-width="1.5"/>
  <g stroke="#e8f2ff" stroke-width="2" stroke-linecap="round" stroke-linejoin="round" fill="none">
    <path d="M48 32C44 38 41 41 41 45C41 49.4 44.6 53 49 53C53.4 53 57 49.4 57 45C57 41 53 37.6 48 32Z"/>
    <path d="M35 58C37.5 55.6 40 55.6 42.5 58C45 60.4 47.5 60.4 50 58"/>
    <path d="M46 62C48.5 59.6 51 59.6 53.5 62C56 64.4 58.5 64.4 61 62"/>
  </g>
</svg>
