<svg xmlns="http://www.w3.org/2000/svg" width="96" height="96" viewBox="0 0 96 96" fill="none">
  <defs>
    <radialGradient id="core-town-capital" cx="0" cy="0" r="1" gradientUnits="userSpaceOnUse" gradientTransform="translate(38 32) rotate(50) scale(62)">
      <stop offset="0" stop-color="#A24B3F"/>
      <stop offset="1" stop-color="#7A382F"/>
    </radialGradient>
  </defs>
  <circle cx="48" cy="48" r="44" fill="#F2ECE1"/>
  <circle cx="48" cy="48" r="39" fill="url(#core-town-capital)" stroke="#201D1B" stroke-width="1.5"/>
  <circle cx="48" cy="48" r="31" stroke="#7B5636" stroke-opacity="0.5" stroke-width="1.5"/>
  <g stroke="#F8F2E7" stroke-width="2" stroke-linecap="round" stroke-linejoin="round" fill="none">
    <!-- Base and wings -->
    <path d="M28 60H68"/>
    <path d="M31 60V52H39V60"/>
    <path d="M57 60V52H65V60"/>

    <!-- Center portico -->
    <path d="M39 60V49H57V60"/>
    <path d="M39 49L48 45L57 49"/>
    <path d="M43 60V51"/>
    <path d="M48 60V51"/>
    <path d="M53 60V51"/>
    <path d="M32 52H39"/>
    <path d="M57 52H64"/>

    <!-- Dome and cupola -->
    <path d="M40 45C40 35 56 35 56 45"/>
    <path d="M42 45H54"/>
    <path d="M44 38C44 34 52 34 52 38"/>
    <path d="M46 34V31H50V34"/>
    <circle cx="48" cy="29.5" r="1.5" fill="#F8F2E7" stroke="none"/>
  </g>
</svg>
