<svg xmlns="http://www.w3.org/2000/svg" width="1600" height="900" viewBox="0 0 1600 900">
  <defs>
    <linearGradient id="bg" x1="0%" y1="0%" x2="100%" y2="100%">
      <stop offset="0%" stop-color="#0a1b29" />
      <stop offset="55%" stop-color="#122235" />
      <stop offset="100%" stop-color="#1d2c1f" />
    </linearGradient>
    <pattern id="dots" width="26" height="26" patternUnits="userSpaceOnUse">
      <circle cx="2" cy="2" r="1" fill="#3a5566" />
    </pattern>
    <linearGradient id="medal" x1="0%" y1="0%" x2="0%" y2="100%">
      <stop offset="0%" stop-color="#ffe8a3" />
      <stop offset="100%" stop-color="#d4a84f" />
    </linearGradient>
  </defs>

  <rect width="1600" height="900" fill="url(#bg)" />
  <rect width="1600" height="900" fill="url(#dots)" opacity="0.28" />
  <circle cx="230" cy="130" r="150" fill="#33c0ba" opacity="0.12" />
  <circle cx="1460" cy="790" r="170" fill="#f8c265" opacity="0.11" />

  <text x="800" y="115" text-anchor="middle" fill="#d8f5ff" font-size="40" font-family="'Trebuchet MS', sans-serif">RUN COMPLETE</text>
  <text x="800" y="156" text-anchor="middle" fill="#99c2d4" font-size="24" font-family="'Segoe UI', sans-serif">Mission: Keep reliability above 80% for 18 minutes</text>

  <rect x="180" y="200" width="1240" height="560" rx="28" fill="#102437" stroke="#3f6176" stroke-width="2" />

  <rect x="220" y="240" width="460" height="480" rx="20" fill="#0f1f2f" stroke="#35556b" stroke-width="1.5" />
  <text x="250" y="292" fill="#c9e8f5" font-size="28" font-family="'Trebuchet MS', sans-serif">Performance</text>

  <text x="250" y="344" fill="#a8cfe0" font-size="21" font-family="'Segoe UI', sans-serif">Final Score</text>
  <text x="650" y="344" text-anchor="end" fill="#ecfbff" font-size="40" font-family="'Trebuchet MS', sans-serif">18,420</text>

  <text x="250" y="396" fill="#a8cfe0" font-size="21" font-family="'Segoe UI', sans-serif">Reliability</text>
  <text x="650" y="396" text-anchor="end" fill="#cff9ec" font-size="34" font-family="'Trebuchet MS', sans-serif">86%</text>

  <text x="250" y="446" fill="#a8cfe0" font-size="21" font-family="'Segoe UI', sans-serif">Regions Stabilized</text>
  <text x="650" y="446" text-anchor="end" fill="#e6f7ff" font-size="34" font-family="'Trebuchet MS', sans-serif">7 / 8</text>

  <text x="250" y="498" fill="#a8cfe0" font-size="21" font-family="'Segoe UI', sans-serif">Incidents Resolved</text>
  <text x="650" y="498" text-anchor="end" fill="#e6f7ff" font-size="34" font-family="'Trebuchet MS', sans-serif">14</text>

  <text x="250" y="550" fill="#a8cfe0" font-size="21" font-family="'Segoe UI', sans-serif">Budget Remaining</text>
  <text x="650" y="550" text-anchor="end" fill="#ffdf9f" font-size="34" font-family="'Trebuchet MS', sans-serif">$112</text>

  <rect x="250" y="594" width="400" height="90" rx="14" fill="#1b3144" stroke="#4a6d82" />
  <text x="450" y="633" text-anchor="middle" fill="#bddbeb" font-size="22" font-family="'Segoe UI', sans-serif">Leaderboard Tier</text>
  <text x="450" y="667" text-anchor="middle" fill="#d6f4ff" font-size="30" font-family="'Trebuchet MS', sans-serif">Silver Division</text>

  <rect x="720" y="240" width="660" height="232" rx="20" fill="#0f1f2f" stroke="#35556b" stroke-width="1.5" />
  <text x="760" y="292" fill="#c9e8f5" font-size="28" font-family="'Trebuchet MS', sans-serif">Medals</text>

  <rect x="760" y="320" width="180" height="120" rx="14" fill="#1a2f42" stroke="#507089" />
  <circle cx="850" cy="377" r="36" fill="url(#medal)" stroke="#946d31" stroke-width="4" />
  <text x="850" y="431" text-anchor="middle" fill="#cfe9f4" font-size="18" font-family="'Segoe UI', sans-serif">Load Master</text>

  <rect x="960" y="320" width="180" height="120" rx="14" fill="#1a2f42" stroke="#507089" />
  <circle cx="1050" cy="377" r="36" fill="#9edec5" stroke="#3f7964" stroke-width="4" />
  <text x="1050" y="431" text-anchor="middle" fill="#cfe9f4" font-size="18" font-family="'Segoe UI', sans-serif">Stable Grid</text>

  <rect x="1160" y="320" width="180" height="120" rx="14" fill="#1a2f42" stroke="#507089" />
  <circle cx="1250" cy="377" r="36" fill="#89c8e8" stroke="#416f86" stroke-width="4" />
  <text x="1250" y="431" text-anchor="middle" fill="#cfe9f4" font-size="18" font-family="'Segoe UI', sans-serif">Fast Recovery</text>

  <rect x="720" y="494" width="660" height="226" rx="20" fill="#0f1f2f" stroke="#35556b" stroke-width="1.5" />
  <text x="760" y="542" fill="#c9e8f5" font-size="28" font-family="'Trebuchet MS', sans-serif">Timeline</text>

  <line x1="780" y1="586" x2="1330" y2="586" stroke="#486477" stroke-width="4" />
  <circle cx="830" cy="586" r="8" fill="#2ec6b6" />
  <circle cx="930" cy="586" r="8" fill="#2ec6b6" />
  <circle cx="1030" cy="586" r="8" fill="#f3be62" />
  <circle cx="1130" cy="586" r="8" fill="#f3be62" />
  <circle cx="1230" cy="586" r="8" fill="#2ec6b6" />

  <text x="780" y="628" fill="#9ec1d2" font-size="19" font-family="'Segoe UI', sans-serif">03:10 - Major heat wave contained</text>
  <text x="780" y="662" fill="#9ec1d2" font-size="19" font-family="'Segoe UI', sans-serif">06:45 - North line rerouted, overload avoided</text>
  <text x="780" y="696" fill="#9ec1d2" font-size="19" font-family="'Segoe UI', sans-serif">14:20 - Demand spike missed in one town cluster</text>

  <rect x="440" y="790" width="260" height="72" rx="14" fill="#173046" stroke="#47687f" stroke-width="1.5" />
  <text x="570" y="835" text-anchor="middle" fill="#d7edf8" font-size="28" font-family="'Segoe UI', sans-serif">Main Menu</text>
  <rect x="725" y="790" width="260" height="72" rx="14" fill="#1cb3a0" />
  <text x="855" y="835" text-anchor="middle" fill="#04251f" font-size="28" font-family="'Trebuchet MS', sans-serif">Play Again</text>
  <rect x="1010" y="790" width="260" height="72" rx="14" fill="#283449" stroke="#55637c" stroke-width="1.5" />
  <text x="1140" y="835" text-anchor="middle" fill="#d6dff6" font-size="28" font-family="'Segoe UI', sans-serif">Share Run</text>
</svg>
