<svg xmlns="http://www.w3.org/2000/svg" width="1600" height="900" viewBox="0 0 1600 900">
  <defs>
    <linearGradient id="bg" x1="0%" y1="0%" x2="100%" y2="100%">
      <stop offset="0%" stop-color="#06131f" />
      <stop offset="55%" stop-color="#0a2436" />
      <stop offset="100%" stop-color="#112a23" />
    </linearGradient>
    <pattern id="grid" width="48" height="48" patternUnits="userSpaceOnUse">
      <path d="M 48 0 L 0 0 0 48" fill="none" stroke="#2b4655" stroke-width="1" />
    </pattern>
    <linearGradient id="buttonPrimary" x1="0%" y1="0%" x2="100%" y2="0%">
      <stop offset="0%" stop-color="#1fb6c9" />
      <stop offset="100%" stop-color="#0d8f83" />
    </linearGradient>
    <linearGradient id="buttonSecondary" x1="0%" y1="0%" x2="100%" y2="0%">
      <stop offset="0%" stop-color="#192d46" />
      <stop offset="100%" stop-color="#1d2a3b" />
    </linearGradient>
    <filter id="softGlow" x="-20%" y="-20%" width="140%" height="140%">
      <feDropShadow dx="0" dy="0" stdDeviation="10" flood-color="#1ac4d0" flood-opacity="0.35" />
    </filter>
  </defs>

  <rect width="1600" height="900" fill="url(#bg)" />
  <rect width="1600" height="900" fill="url(#grid)" opacity="0.25" />
  <circle cx="1320" cy="130" r="220" fill="#1ba7ac" opacity="0.12" />
  <circle cx="156" cy="832" r="140" fill="#f6ba4c" opacity="0.08" />

  <rect x="70" y="70" width="560" height="760" rx="30" fill="#0b1c2d" stroke="#2a5065" stroke-width="2" />
  <text x="115" y="150" fill="#b5f8ff" font-size="24" font-family="'Trebuchet MS', 'Segoe UI', sans-serif" letter-spacing="4">STRATEGY SIMULATION</text>
  <text x="115" y="225" fill="#f2fffa" font-size="76" font-weight="700" font-family="'Trebuchet MS', 'Segoe UI', sans-serif">SAVE THE</text>
  <text x="115" y="300" fill="#32c9ba" font-size="76" font-weight="700" font-family="'Trebuchet MS', 'Segoe UI', sans-serif" filter="url(#softGlow)">GRID</text>
  <text x="115" y="350" fill="#8fb2c2" font-size="24" font-family="'Segoe UI', sans-serif">Balance power, survive incidents, and grow demand.</text>

  <rect x="115" y="400" width="470" height="74" rx="14" fill="url(#buttonPrimary)" />
  <text x="350" y="446" text-anchor="middle" fill="#022229" font-size="30" font-weight="700" font-family="'Trebuchet MS', sans-serif">START STANDARD RUN</text>

  <rect x="115" y="492" width="228" height="64" rx="12" fill="url(#buttonSecondary)" stroke="#3a5d75" stroke-width="1.5" />
  <rect x="357" y="492" width="228" height="64" rx="12" fill="url(#buttonSecondary)" stroke="#3a5d75" stroke-width="1.5" />
  <rect x="115" y="570" width="228" height="64" rx="12" fill="url(#buttonSecondary)" stroke="#3a5d75" stroke-width="1.5" />
  <rect x="357" y="570" width="228" height="64" rx="12" fill="url(#buttonSecondary)" stroke="#3a5d75" stroke-width="1.5" />

  <text x="229" y="533" text-anchor="middle" fill="#d2ebf3" font-size="22" font-family="'Segoe UI', sans-serif">Campaign</text>
  <text x="471" y="533" text-anchor="middle" fill="#d2ebf3" font-size="22" font-family="'Segoe UI', sans-serif">Custom Game</text>
  <text x="229" y="611" text-anchor="middle" fill="#d2ebf3" font-size="22" font-family="'Segoe UI', sans-serif">Records</text>
  <text x="471" y="611" text-anchor="middle" fill="#d2ebf3" font-size="22" font-family="'Segoe UI', sans-serif">Settings</text>

  <rect x="112" y="690" width="474" height="112" rx="16" fill="#0e2639" stroke="#314f65" stroke-width="1.5" />
  <text x="140" y="730" fill="#a9d9df" font-size="20" font-family="'Segoe UI', sans-serif">Daily Signal</text>
  <text x="140" y="764" fill="#dcf5ff" font-size="24" font-family="'Segoe UI', sans-serif">Storm fronts on East Coast Settlements</text>
  <text x="140" y="790" fill="#ffcb7c" font-size="19" font-family="'Segoe UI', sans-serif">Expected load volatility: +18%</text>

  <rect x="690" y="108" width="840" height="690" rx="26" fill="#091725" stroke="#3b6075" stroke-width="2" />
  <text x="740" y="165" fill="#d7f0f7" font-size="29" font-family="'Trebuchet MS', sans-serif">National Grid Overview</text>
  <rect x="740" y="195" width="740" height="550" rx="20" fill="#0f2436" stroke="#325269" stroke-width="1.5" />

  <line x1="905" y1="435" x2="1035" y2="302" stroke="#5093ab" stroke-width="6" />
  <line x1="905" y1="435" x2="1205" y2="428" stroke="#5093ab" stroke-width="6" />
  <line x1="905" y1="435" x2="880" y2="590" stroke="#5093ab" stroke-width="6" />
  <line x1="905" y1="435" x2="1052" y2="558" stroke="#5093ab" stroke-width="6" />
  <line x1="1205" y1="428" x2="1280" y2="282" stroke="#5093ab" stroke-width="6" />
  <line x1="880" y1="590" x2="1052" y2="558" stroke="#5093ab" stroke-width="6" />
  <line x1="1205" y1="428" x2="1315" y2="598" stroke="#5093ab" stroke-width="6" />

  <circle cx="905" cy="435" r="38" fill="#35d0c0" stroke="#0f5160" stroke-width="6" />
  <circle cx="1035" cy="302" r="30" fill="#e9b65d" stroke="#76572a" stroke-width="5" />
  <circle cx="1205" cy="428" r="33" fill="#f4c564" stroke="#7a5d2f" stroke-width="5" />
  <circle cx="880" cy="590" r="29" fill="#9fc6d4" stroke="#4d6f80" stroke-width="5" />
  <circle cx="1052" cy="558" r="31" fill="#84d4f0" stroke="#39708b" stroke-width="5" />
  <circle cx="1280" cy="282" r="34" fill="#7ed8c4" stroke="#2d7265" stroke-width="5" />
  <circle cx="1315" cy="598" r="32" fill="#9fdf7b" stroke="#40723b" stroke-width="5" />

  <rect x="740" y="764" width="740" height="62" rx="14" fill="#132d40" stroke="#3e6073" stroke-width="1.5" />
  <text x="780" y="802" fill="#c0e0eb" font-size="22" font-family="'Segoe UI', sans-serif">Selected preset: Standard   |   Forecast confidence: 82%   |   Run target: 18 min</text>
</svg>
