<svg xmlns="http://www.w3.org/2000/svg" width="1600" height="900" viewBox="0 0 1600 900">
  <defs>
    <linearGradient id="map-sea" x1="0%" y1="0%" x2="0%" y2="100%">
      <stop offset="0%" stop-color="#4f8fc0" />
      <stop offset="100%" stop-color="#3d79ab" />
    </linearGradient>
    <linearGradient id="map-land-base" x1="0%" y1="0%" x2="100%" y2="100%">
      <stop offset="0%" stop-color="#bedc92" />
      <stop offset="100%" stop-color="#a8cd77" />
    </linearGradient>
    <linearGradient id="map-highland" x1="0%" y1="0%" x2="100%" y2="0%">
      <stop offset="0%" stop-color="#d9cdab" />
      <stop offset="100%" stop-color="#c9b992" />
    </linearGradient>
    <linearGradient id="map-forest" x1="0%" y1="0%" x2="100%" y2="0%">
      <stop offset="0%" stop-color="#aeca7f" />
      <stop offset="100%" stop-color="#9abb72" />
    </linearGradient>
    <pattern id="map-grain" width="24" height="24" patternUnits="userSpaceOnUse">
      <circle cx="3" cy="5" r="1" fill="#f2edd4" opacity="0.24" />
      <circle cx="11" cy="16" r="0.9" fill="#7daa63" opacity="0.21" />
      <circle cx="19" cy="7" r="1" fill="#d7d0af" opacity="0.22" />
      <circle cx="18" cy="20" r="0.7" fill="#86ac6a" opacity="0.2" />
      <circle cx="6" cy="22" r="0.6" fill="#f0ebcf" opacity="0.2" />
    </pattern>

    <path id="mainland-shape" d="M0 0 L342 0 C438 10 562 52 673 118 C774 177 867 253 935 340 C994 415 1025 494 1016 564 C1008 622 973 670 926 705 C997 720 1089 756 1194 817 C1290 873 1395 900 1600 900 L0 900 Z" />
    <clipPath id="clip-mainland">
      <use href="#mainland-shape" />
    </clipPath>
  </defs>

  <rect width="1600" height="900" fill="url(#map-sea)" />
  <rect y="0" width="1600" height="275" fill="#5a98c8" opacity="0.22" />

  <use href="#mainland-shape" fill="url(#map-land-base)" />

  <g clip-path="url(#clip-mainland)">
    <rect width="1600" height="900" fill="url(#map-grain)" opacity="0.75" />

    <path d="M76 103 C170 68 268 74 365 143 C302 191 228 214 127 190 C84 176 45 149 22 122 Z" fill="url(#map-forest)" opacity="0.48" />
    <path d="M495 224 C611 184 720 202 828 290 C726 340 614 355 514 318 C470 302 431 278 405 250 Z" fill="url(#map-highland)" opacity="0.6" />
    <path d="M273 316 C376 262 474 275 569 354 C477 404 389 418 307 388 C266 372 231 348 203 322 Z" fill="url(#map-highland)" opacity="0.5" />
    <path d="M634 503 C734 445 832 462 922 545 C824 596 737 613 657 583 C616 566 584 539 556 512 Z" fill="url(#map-highland)" opacity="0.58" />
    <path d="M1043 740 C1121 707 1207 720 1295 784 C1219 822 1140 837 1066 815 C1032 805 1001 784 982 762 Z" fill="url(#map-forest)" opacity="0.45" />

    <g stroke="#fbf8ea" stroke-linecap="round" fill="none" opacity="0.38">
      <path d="M132 117 C220 86 313 99 391 165" stroke-width="3" />
      <path d="M93 151 C168 126 250 131 325 184" stroke-width="2.8" />
      <path d="M170 191 C253 165 348 175 424 231" stroke-width="2.6" />
      <path d="M257 260 C340 233 424 246 499 302" stroke-width="2.9" />
      <path d="M343 296 C431 266 526 277 603 334" stroke-width="3" />
      <path d="M420 331 C503 306 600 321 679 381" stroke-width="2.8" />
      <path d="M522 240 C610 209 701 220 784 280" stroke-width="3" />
      <path d="M603 272 C688 244 782 257 864 319" stroke-width="2.9" />
      <path d="M676 312 C759 287 843 301 921 361" stroke-width="2.7" />
      <path d="M574 426 C663 395 750 411 832 474" stroke-width="3" />
      <path d="M646 463 C731 435 822 450 902 512" stroke-width="2.9" />
      <path d="M556 548 C643 519 733 535 814 595" stroke-width="2.8" />
      <path d="M636 589 C717 562 807 577 888 636" stroke-width="2.7" />
      <path d="M716 625 C795 600 887 617 969 676" stroke-width="2.6" />
      <path d="M1032 760 C1113 734 1202 751 1281 810" stroke-width="2.7" />
      <path d="M1112 789 C1189 768 1278 784 1344 833" stroke-width="2.5" />
    </g>

    <g fill="#f7f4e2" opacity="0.23">
      <ellipse cx="214" cy="140" rx="148" ry="70" />
      <ellipse cx="442" cy="292" rx="181" ry="78" />
      <ellipse cx="712" cy="268" rx="162" ry="66" />
      <ellipse cx="742" cy="536" rx="179" ry="82" />
      <ellipse cx="1166" cy="790" rx="164" ry="72" />
    </g>
  </g>

  <g>
    <path d="M900 455 C958 430 1020 436 1074 468 C1123 496 1168 535 1202 580 C1146 608 1089 647 1036 700 C990 676 946 648 918 605 C891 564 884 509 900 455 Z" fill="url(#map-sea)" />
    <path d="M980 603 C1035 579 1100 579 1165 607 C1222 632 1278 670 1330 723 C1268 760 1209 799 1146 850 C1093 821 1044 789 1003 751 C959 709 946 651 980 603 Z" fill="url(#map-sea)" />
    <path d="M873 530 C901 514 934 510 964 523 C991 536 1014 561 1027 590 C997 608 968 631 942 664 C915 648 890 631 871 605 C849 574 851 544 873 530 Z" fill="url(#map-sea)" />
  </g>

  <g>
    <use href="#mainland-shape" fill="none" stroke="#c8d49a" stroke-width="6" opacity="0.55" />
    <use href="#mainland-shape" fill="none" stroke="#8ba468" stroke-width="2.3" opacity="0.76" />
    <path d="M900 455 C958 430 1020 436 1074 468 C1123 496 1168 535 1202 580" fill="none" stroke="#c7d598" stroke-width="5" opacity="0.52" />
    <path d="M900 455 C958 430 1020 436 1074 468 C1123 496 1168 535 1202 580" fill="none" stroke="#8aa56a" stroke-width="2.1" opacity="0.7" />
    <path d="M980 603 C1035 579 1100 579 1165 607 C1222 632 1278 670 1330 723" fill="none" stroke="#c7d598" stroke-width="5" opacity="0.52" />
    <path d="M980 603 C1035 579 1100 579 1165 607 C1222 632 1278 670 1330 723" fill="none" stroke="#8aa56a" stroke-width="2.1" opacity="0.7" />
  </g>

  <g fill="none" stroke-linecap="round" stroke-linejoin="round" opacity="0.97">
    <g stroke="#4e7bf1" stroke-width="4.8">
      <path d="M48 66 C124 117 169 204 213 292 C257 377 318 446 403 523 C490 604 555 690 639 786" />
      <path d="M244 101 C316 151 368 226 425 306 C480 384 549 447 634 506 C726 570 781 643 839 756" />
      <path d="M446 179 C522 227 592 286 651 356 C703 418 771 474 848 514 C925 554 981 618 1026 689" />
      <path d="M676 234 C742 287 799 355 852 431 C904 505 955 571 1020 627 C1083 683 1151 734 1234 773" />
      <path d="M841 277 C900 330 949 401 989 487 C1022 556 1063 617 1136 670 C1208 720 1275 773 1347 843" />
    </g>
    <g stroke="#7ea1ff" stroke-width="2.1" opacity="0.95">
      <path d="M144 238 C211 285 274 329 333 391 C392 452 454 510 532 569 C603 622 663 689 714 756" />
      <path d="M300 319 C373 367 438 417 500 480 C562 543 638 598 709 654" />
      <path d="M482 252 C548 309 612 365 665 425 C718 485 786 534 860 583" />
      <path d="M630 409 C699 459 755 513 819 561 C885 611 955 657 1038 697" />
      <path d="M799 356 C855 417 899 479 938 551 C972 614 1020 666 1094 706" />
      <path d="M934 558 C994 611 1053 659 1112 700 C1171 742 1238 780 1307 819" />
      <path d="M948 630 C1012 676 1076 716 1134 752 C1187 787 1248 823 1320 858" />
    </g>
  </g>

  <g fill="none" stroke="#5b87ff" stroke-width="2.2" stroke-linecap="round" opacity="0.9">
    <path d="M108 73 C196 136 264 219 311 313 C356 406 402 481 488 557 C571 631 636 706 703 788" />
    <path d="M325 92 C396 153 447 242 495 332 C539 415 592 478 679 546 C760 610 819 684 876 773" />
    <path d="M535 166 C610 233 674 309 725 389 C775 466 835 531 913 590 C985 644 1042 709 1094 793" />
    <path d="M718 246 C772 311 826 382 879 455 C927 521 984 583 1059 639 C1128 691 1204 736 1288 793" />
    <path d="M84 588 C178 577 261 594 336 636 C410 677 489 729 584 770 C673 808 765 835 866 861" />
    <path d="M807 646 C874 667 938 704 995 750 C1043 787 1108 826 1188 862" />
  </g>

  <g fill="#8f9683" opacity="0.97">
    <rect x="44" y="98" width="31" height="31" rx="5" />
    <rect x="224" y="133" width="25" height="25" rx="5" />
    <rect x="304" y="188" width="29" height="29" rx="6" />
    <rect x="430" y="232" width="22" height="22" rx="5" />
    <rect x="600" y="201" width="20" height="20" rx="4" />
    <rect x="870" y="278" width="27" height="27" rx="6" />
    <rect x="1028" y="615" width="25" height="25" rx="5" />
    <rect x="1172" y="738" width="34" height="34" rx="7" />
    <rect x="1454" y="807" width="23" height="23" rx="5" />
    <circle cx="262" cy="390" r="12" />
    <circle cx="379" cy="587" r="10" />
    <circle cx="474" cy="689" r="9" />
    <circle cx="671" cy="336" r="11" />
    <circle cx="808" cy="641" r="10" />
    <circle cx="954" cy="745" r="11" />
    <circle cx="1108" cy="574" r="9" />
    <circle cx="1232" cy="693" r="10" />
  </g>

  <g stroke="#355cb5" stroke-width="5" stroke-linecap="round" opacity="0.88">
    <line x1="736" y1="434" x2="760" y2="226" />
    <line x1="736" y1="434" x2="488" y2="367" />
    <line x1="736" y1="434" x2="958" y2="432" />
    <line x1="736" y1="434" x2="709" y2="655" />
    <line x1="736" y1="434" x2="566" y2="558" />
    <line x1="709" y1="655" x2="902" y2="736" />
    <line x1="958" y1="432" x2="1026" y2="272" />
    <line x1="760" y1="226" x2="1026" y2="272" />
    <line x1="488" y1="367" x2="566" y2="558" />
    <line x1="566" y1="558" x2="709" y2="655" />
    <line x1="958" y1="432" x2="902" y2="736" />
  </g>

  <g>
    <circle cx="736" cy="434" r="21" fill="#35bda8" stroke="#0c4d4a" stroke-width="5" />
    <circle cx="760" cy="226" r="16" fill="#aab0a1" stroke="#646a5c" stroke-width="4" />
    <circle cx="488" cy="367" r="15" fill="#93a385" stroke="#56604d" stroke-width="4" />
    <circle cx="958" cy="432" r="17" fill="#a3ab99" stroke="#5b6555" stroke-width="4" />
    <circle cx="709" cy="655" r="17" fill="#89a585" stroke="#4a6148" stroke-width="4" />
    <circle cx="902" cy="736" r="16" fill="#97a194" stroke="#596256" stroke-width="4" />
    <circle cx="566" cy="558" r="16" fill="#949d91" stroke="#596155" stroke-width="4" />
    <circle cx="1026" cy="272" r="17" fill="#999f93" stroke="#5a6154" stroke-width="4" />
  </g>
  <defs>
    <linearGradient id="hud-ui-panel" x1="0%" y1="0%" x2="100%" y2="100%">
      <stop offset="0%" stop-color="#1d2a34" stop-opacity="0.9" />
      <stop offset="100%" stop-color="#111a22" stop-opacity="0.78" />
    </linearGradient>
    <filter id="hud-ui-shadow" x="-20%" y="-20%" width="140%" height="140%">
      <feDropShadow dx="0" dy="2" stdDeviation="4" flood-color="#000000" flood-opacity="0.35" />
    </filter>
  </defs>

  <g id="ui-top-left" filter="url(#hud-ui-shadow)">
    <rect x="16" y="16" width="44" height="44" rx="10" fill="url(#hud-ui-panel)" stroke="#2f4453" stroke-width="1.2" />
    <g stroke="#d9eaf7" stroke-width="2" fill="none" stroke-linecap="round">
      <line x1="29" y1="31" x2="46" y2="31" />
      <line x1="29" y1="39" x2="46" y2="39" />
      <line x1="29" y1="47" x2="46" y2="47" />
      <line x1="33" y1="27" x2="33" y2="51" />
      <line x1="41" y1="27" x2="41" y2="51" />
    </g>
  </g>

  <g id="ui-top-center" filter="url(#hud-ui-shadow)">
    <rect x="708" y="94" width="186" height="50" rx="12" fill="url(#hud-ui-panel)" stroke="#314857" stroke-width="1.1" />
    <text x="801" y="127" text-anchor="middle" fill="#edf7ff" font-size="36" font-family="'Trebuchet MS', 'Segoe UI', sans-serif">Game paused</text>
  </g>

  <g id="ui-top-right" filter="url(#hud-ui-shadow)">
    <rect x="1360" y="16" width="224" height="44" rx="10" fill="url(#hud-ui-panel)" stroke="#304554" stroke-width="1.1" />
    <text x="1472" y="45" text-anchor="middle" fill="#edf7ff" font-size="31" font-family="'Trebuchet MS', 'Segoe UI', sans-serif">00:47  PLAY  FAST  CFG  EXIT</text>
  </g>

  <g id="ui-bottom-left" filter="url(#hud-ui-shadow)">
    <rect x="18" y="694" width="316" height="194" rx="12" fill="url(#hud-ui-panel)" stroke="#304655" stroke-width="1.2" />
    <rect x="30" y="708" width="292" height="96" rx="7" fill="#1f2a30" fill-opacity="0.56" />

    <text x="36" y="742" fill="#d9e5eb" font-size="38" font-family="'Trebuchet MS', 'Segoe UI', sans-serif">Demand:</text>
    <text x="313" y="742" text-anchor="end" fill="#f3f8fb" font-size="38" font-family="'Trebuchet MS', 'Segoe UI', sans-serif">512 / 540 MW</text>
    <text x="313" y="775" text-anchor="end" fill="#2dd684" font-size="34" font-family="'Trebuchet MS', 'Segoe UI', sans-serif">(+28)</text>

    <text x="36" y="807" fill="#d9e5eb" font-size="38" font-family="'Trebuchet MS', 'Segoe UI', sans-serif">Budget:</text>
    <text x="313" y="807" text-anchor="end" fill="#f3f8fb" font-size="38" font-family="'Trebuchet MS', 'Segoe UI', sans-serif">$642</text>

    <text x="30" y="841" fill="#d9e5eb" font-size="34" font-family="'Trebuchet MS', 'Segoe UI', sans-serif">Dispatch Bias : 62% (Load-First)</text>
    <rect x="32" y="856" width="278" height="10" rx="5" fill="#687b85" />
    <rect x="32" y="856" width="172" height="10" rx="5" fill="#de6f6e" />
    <circle cx="204" cy="861" r="12" fill="#f4f4f4" stroke="#aeb8bc" stroke-width="2" />
  </g>

  <g id="ui-bottom-center" filter="url(#hud-ui-shadow)">
    <rect x="512" y="840" width="386" height="42" rx="9" fill="url(#hud-ui-panel)" stroke="#304655" stroke-width="1.1" />
    <text x="705" y="867" text-anchor="middle" fill="#e7f1f8" font-size="28" font-family="'Trebuchet MS', 'Segoe UI', sans-serif">PLANT 2 | SUB 3 | STORE 1 | LINES 11</text>

    <rect x="914" y="840" width="274" height="42" rx="9" fill="url(#hud-ui-panel)" stroke="#304655" stroke-width="1.1" />
    <text x="1051" y="867" text-anchor="middle" fill="#e7f1f8" font-size="28" font-family="'Trebuchet MS', 'Segoe UI', sans-serif">ALERTS 1 | EVENTS 2</text>
  </g>

  <g id="ui-bottom-right" filter="url(#hud-ui-shadow)">
    <rect x="1108" y="792" width="474" height="96" rx="12" fill="url(#hud-ui-panel)" stroke="#304655" stroke-width="1.2" />

    <rect x="1125" y="812" width="64" height="56" rx="8" fill="#dfe9f2" fill-opacity="0.22" />
    <rect x="1198" y="812" width="64" height="56" rx="8" fill="#dfe9f2" fill-opacity="0.06" />
    <rect x="1271" y="812" width="64" height="56" rx="8" fill="#dfe9f2" fill-opacity="0.06" />
    <rect x="1344" y="812" width="64" height="56" rx="8" fill="#dfe9f2" fill-opacity="0.06" />
    <rect x="1417" y="812" width="64" height="56" rx="8" fill="#dfe9f2" fill-opacity="0.06" />

    <text x="1157" y="849" text-anchor="middle" fill="#edf6fc" font-size="22" font-family="'Trebuchet MS', 'Segoe UI', sans-serif">Build</text>
    <text x="1230" y="849" text-anchor="middle" fill="#c9d8e3" font-size="22" font-family="'Trebuchet MS', 'Segoe UI', sans-serif">Demo</text>
    <text x="1303" y="849" text-anchor="middle" fill="#c9d8e3" font-size="22" font-family="'Trebuchet MS', 'Segoe UI', sans-serif">Route</text>
    <text x="1376" y="849" text-anchor="middle" fill="#c9d8e3" font-size="22" font-family="'Trebuchet MS', 'Segoe UI', sans-serif">Cycle</text>
    <text x="1449" y="849" text-anchor="middle" fill="#c9d8e3" font-size="22" font-family="'Trebuchet MS', 'Segoe UI', sans-serif">News</text>
    <text x="1515" y="852" text-anchor="middle" fill="#eff8ff" font-size="34" font-family="'Trebuchet MS', 'Segoe UI', sans-serif">Hide</text>
  </g>

  <g id="ui-region-tooltip" filter="url(#hud-ui-shadow)">
    <rect x="782" y="510" width="292" height="104" rx="10" fill="url(#hud-ui-panel)" stroke="#304655" stroke-width="1.1" />
    <text x="802" y="544" fill="#eaf4fa" font-size="33" font-family="'Trebuchet MS', 'Segoe UI', sans-serif">Capital Metro</text>
    <text x="802" y="576" fill="#d4e5ef" font-size="28" font-family="'Trebuchet MS', 'Segoe UI', sans-serif">Demand 95 | Served 87</text>
    <text x="802" y="604" fill="#f8bf7c" font-size="28" font-family="'Trebuchet MS', 'Segoe UI', sans-serif">Line saturation risk: 91%</text>
  </g>
</svg>
