<svg xmlns="http://www.w3.org/2000/svg" width="1600" height="900" viewBox="0 0 1600 900">
  <defs>
    <linearGradient id="ui-panel" x1="0%" y1="0%" x2="100%" y2="100%">
      <stop offset="0%" stop-color="#1d2a34" stop-opacity="0.9" />
      <stop offset="100%" stop-color="#111a22" stop-opacity="0.78" />
    </linearGradient>
    <filter id="ui-shadow" x="-20%" y="-20%" width="140%" height="140%">
      <feDropShadow dx="0" dy="2" stdDeviation="4" flood-color="#000000" flood-opacity="0.35" />
    </filter>
  </defs>

  <g id="ui-top-left" filter="url(#ui-shadow)">
    <rect x="16" y="16" width="44" height="44" rx="10" fill="url(#ui-panel)" stroke="#2f4453" stroke-width="1.2" />
    <g stroke="#d9eaf7" stroke-width="2" fill="none" stroke-linecap="round">
      <line x1="29" y1="31" x2="46" y2="31" />
      <line x1="29" y1="39" x2="46" y2="39" />
      <line x1="29" y1="47" x2="46" y2="47" />
      <line x1="33" y1="27" x2="33" y2="51" />
      <line x1="41" y1="27" x2="41" y2="51" />
    </g>
  </g>

  <g id="ui-top-center" filter="url(#ui-shadow)">
    <rect x="708" y="94" width="186" height="50" rx="12" fill="url(#ui-panel)" stroke="#314857" stroke-width="1.1" />
    <text x="801" y="127" text-anchor="middle" fill="#edf7ff" font-size="36" font-family="'Trebuchet MS', 'Segoe UI', sans-serif">Game paused</text>
  </g>

  <g id="ui-top-right" filter="url(#ui-shadow)">
    <rect x="1360" y="16" width="224" height="44" rx="10" fill="url(#ui-panel)" stroke="#304554" stroke-width="1.1" />
    <text x="1472" y="45" text-anchor="middle" fill="#edf7ff" font-size="31" font-family="'Trebuchet MS', 'Segoe UI', sans-serif">00:47  PLAY  FAST  CFG  EXIT</text>
  </g>

  <g id="ui-bottom-left" filter="url(#ui-shadow)">
    <rect x="18" y="694" width="316" height="194" rx="12" fill="url(#ui-panel)" stroke="#304655" stroke-width="1.2" />
    <rect x="30" y="708" width="292" height="96" rx="7" fill="#1f2a30" fill-opacity="0.56" />

    <text x="36" y="742" fill="#d9e5eb" font-size="38" font-family="'Trebuchet MS', 'Segoe UI', sans-serif">Demand:</text>
    <text x="313" y="742" text-anchor="end" fill="#f3f8fb" font-size="38" font-family="'Trebuchet MS', 'Segoe UI', sans-serif">512 / 540 MW</text>
    <text x="313" y="775" text-anchor="end" fill="#2dd684" font-size="34" font-family="'Trebuchet MS', 'Segoe UI', sans-serif">(+28)</text>

    <text x="36" y="807" fill="#d9e5eb" font-size="38" font-family="'Trebuchet MS', 'Segoe UI', sans-serif">Budget:</text>
    <text x="313" y="807" text-anchor="end" fill="#f3f8fb" font-size="38" font-family="'Trebuchet MS', 'Segoe UI', sans-serif">$642</text>

    <text x="30" y="841" fill="#d9e5eb" font-size="34" font-family="'Trebuchet MS', 'Segoe UI', sans-serif">Dispatch Bias : 62% (Load-First)</text>
    <rect x="32" y="856" width="278" height="10" rx="5" fill="#687b85" />
    <rect x="32" y="856" width="172" height="10" rx="5" fill="#de6f6e" />
    <circle cx="204" cy="861" r="12" fill="#f4f4f4" stroke="#aeb8bc" stroke-width="2" />
  </g>

  <g id="ui-bottom-center" filter="url(#ui-shadow)">
    <rect x="512" y="840" width="386" height="42" rx="9" fill="url(#ui-panel)" stroke="#304655" stroke-width="1.1" />
    <text x="705" y="867" text-anchor="middle" fill="#e7f1f8" font-size="28" font-family="'Trebuchet MS', 'Segoe UI', sans-serif">PLANT 2 | SUB 3 | STORE 1 | LINES 11</text>

    <rect x="914" y="840" width="274" height="42" rx="9" fill="url(#ui-panel)" stroke="#304655" stroke-width="1.1" />
    <text x="1051" y="867" text-anchor="middle" fill="#e7f1f8" font-size="28" font-family="'Trebuchet MS', 'Segoe UI', sans-serif">ALERTS 1 | EVENTS 2</text>
  </g>

  <g id="ui-bottom-right" filter="url(#ui-shadow)">
    <rect x="1108" y="792" width="474" height="96" rx="12" fill="url(#ui-panel)" stroke="#304655" stroke-width="1.2" />

    <rect x="1125" y="812" width="64" height="56" rx="8" fill="#dfe9f2" fill-opacity="0.22" />
    <rect x="1198" y="812" width="64" height="56" rx="8" fill="#dfe9f2" fill-opacity="0.06" />
    <rect x="1271" y="812" width="64" height="56" rx="8" fill="#dfe9f2" fill-opacity="0.06" />
    <rect x="1344" y="812" width="64" height="56" rx="8" fill="#dfe9f2" fill-opacity="0.06" />
    <rect x="1417" y="812" width="64" height="56" rx="8" fill="#dfe9f2" fill-opacity="0.06" />

    <text x="1157" y="849" text-anchor="middle" fill="#edf6fc" font-size="22" font-family="'Trebuchet MS', 'Segoe UI', sans-serif">Build</text>
    <text x="1230" y="849" text-anchor="middle" fill="#c9d8e3" font-size="22" font-family="'Trebuchet MS', 'Segoe UI', sans-serif">Demo</text>
    <text x="1303" y="849" text-anchor="middle" fill="#c9d8e3" font-size="22" font-family="'Trebuchet MS', 'Segoe UI', sans-serif">Route</text>
    <text x="1376" y="849" text-anchor="middle" fill="#c9d8e3" font-size="22" font-family="'Trebuchet MS', 'Segoe UI', sans-serif">Cycle</text>
    <text x="1449" y="849" text-anchor="middle" fill="#c9d8e3" font-size="22" font-family="'Trebuchet MS', 'Segoe UI', sans-serif">News</text>
    <text x="1515" y="852" text-anchor="middle" fill="#eff8ff" font-size="34" font-family="'Trebuchet MS', 'Segoe UI', sans-serif">Hide</text>
  </g>

  <g id="ui-map-tooltip" filter="url(#ui-shadow)">
    <rect x="782" y="510" width="292" height="104" rx="10" fill="url(#ui-panel)" stroke="#304655" stroke-width="1.1" />
    <text x="802" y="544" fill="#eaf4fa" font-size="33" font-family="'Trebuchet MS', 'Segoe UI', sans-serif">Central Town Cluster</text>
    <text x="802" y="576" fill="#d4e5ef" font-size="28" font-family="'Trebuchet MS', 'Segoe UI', sans-serif">Demand 95 | Served 87</text>
    <text x="802" y="604" fill="#f8bf7c" font-size="28" font-family="'Trebuchet MS', 'Segoe UI', sans-serif">Line saturation risk: 91%</text>
  </g>
</svg>
